<!-- icon666.com - MILLIONS vector ICONS FREE --><svg clip-rule="evenodd" fill-rule="evenodd" stroke-linejoin="round" stroke-miterlimit="2" viewBox="0 0 32 32" xmlns="http://www.w3.org/2000/svg"><g transform="translate(-84 -420)"><g transform="translate(1.691 249.728)"><path d="m103.855 187.844 6.597 8.202c-.359.148-.747.226-1.143.226-4.843 0-17.157 0-22 0-.396 0-.784-.078-1.143-.226l6.597-8.202c.913.909 2.155 1.428 3.459 1.428h4.174c1.304 0 2.545-.519 3.459-1.428zm-19.18-10.008 6.786 8.436-6.786 8.436c-.238-.437-.366-.93-.366-1.436 0-3.463 0-10.537 0-14 0-.506.128-.999.366-1.436zm27.268 0c.238.437.366.93.366 1.436v14c0 .506-.128.999-.366 1.436l-6.786-8.436zm-25.777-1.338c.359-.148.747-.226 1.143-.226h22c.396 0 .784.078 1.143.226l-7.795 9.691c-.551.685-1.382 1.083-2.261 1.083-1.259 0-2.915 0-4.174 0-.879 0-1.71-.398-2.261-1.083z" fill="#000000" style="fill: rgb(179, 57, 93);"></path></g></g></svg>