<svg id="Layer_1" viewBox="0 0 64 64" xmlns="http://www.w3.org/2000/svg"><path d="m37.86 50.07c3.22-1.04 6.11-2.931 8.35-5.46-1.39-.771-2.87-1.391-4.4-1.841-.79 2.681-2.13 5.171-3.95 7.301z" fill="#000000" style="fill: rgb(179, 57, 93);"></path><path d="m33 41.4v9.489c3.75-.88 5.82-5.33 6.87-8.64-2.26-.509-4.56-.789-6.87-.849z" fill="#000000" style="fill: rgb(179, 57, 93);"></path><path d="m42.35 23.16c.62 2.57.97 5.2 1.03 7.84h7.59c-.19-3.61-1.4-7.08-3.5-10.03-1.61.93-3.33 1.66-5.12 2.19z" fill="#000000" style="fill: rgb(179, 57, 93);"></path><path d="m22.62 31h8.38v-6.4c-2.5-.06-4.98-.369-7.42-.93-.58 2.41-.9 4.86-.96 7.33z" fill="#000000" style="fill: rgb(179, 57, 93);"></path><path d="m46.21 19.39c-2.24-2.529-5.13-4.42-8.35-5.46 1.82 2.13 3.16 4.62 3.95 7.301 1.53-.451 3.01-1.071 4.4-1.841z" fill="#000000" style="fill: rgb(179, 57, 93);"></path><path d="m17.79 44.61c2.24 2.529 5.13 4.42 8.35 5.46-1.82-2.13-3.16-4.62-3.95-7.301-1.53.451-3.01 1.071-4.4 1.841z" fill="#000000" style="fill: rgb(179, 57, 93);"></path><path d="m40.42 23.67c-2.44.56-4.92.87-7.42.93v6.4h8.38c-.06-2.47-.38-4.92-.96-7.33z" fill="#000000" style="fill: rgb(179, 57, 93);"></path><path d="m33 13.11v9.49c2.31-.06 4.61-.34 6.87-.85-1.05-3.31-3.12-7.76-6.87-8.64z" fill="#000000" style="fill: rgb(179, 57, 93);"></path><path d="m26.14 13.93c-3.22 1.04-6.11 2.931-8.35 5.46 1.39.771 2.87 1.391 4.4 1.841.79-2.681 2.13-5.171 3.95-7.301z" fill="#000000" style="fill: rgb(179, 57, 93);"></path><path d="m20.62 33h-7.59c.19 3.61 1.4 7.08 3.5 10.03 1.61-.931 3.33-1.66 5.12-2.19-.62-2.57-.97-5.2-1.03-7.84z" fill="#000000" style="fill: rgb(179, 57, 93);"></path><path d="m24.13 21.75c2.26.51 4.56.79 6.87.85v-9.49c-3.75.88-5.82 5.33-6.87 8.64z" fill="#000000" style="fill: rgb(179, 57, 93);"></path><path d="m33 39.4c2.5.06 4.98.369 7.42.93.58-2.41.9-4.86.96-7.33h-8.38z" fill="#000000" style="fill: rgb(179, 57, 93);"></path><path d="m23.58 40.33c2.44-.561 4.92-.87 7.42-.93v-6.4h-8.38c.06 2.47.38 4.92.96 7.33z" fill="#000000" style="fill: rgb(179, 57, 93);"></path><path d="m31 50.89v-9.49c-2.31.06-4.61.34-6.87.85 1.05 3.31 3.12 7.76 6.87 8.64z" fill="#000000" style="fill: rgb(179, 57, 93);"></path><path d="m42.35 40.84c1.79.53 3.51 1.26 5.12 2.19 2.1-2.95 3.31-6.42 3.5-10.03h-7.59c-.06 2.64-.41 5.27-1.03 7.84z" fill="#000000" style="fill: rgb(179, 57, 93);"></path><path d="m13.03 31h7.59c.06-2.64.41-5.27 1.03-7.84-1.79-.53-3.51-1.26-5.12-2.19-2.1 2.95-3.31 6.42-3.5 10.03z" fill="#000000" style="fill: rgb(179, 57, 93);"></path></svg>